<svg width="102" height="95" viewBox="0 0 102 95" fill="none" xmlns="http://www.w3.org/2000/svg">
<path d="M79.5417 1.51316C80.5161 2.82182 80.2121 6.03025 78.6299 11.1384C77.0477 16.2467 70.5322 28.8261 70.4906 28.8716C68.2376 39.9633 66.1251 51.5176 64.1533 63.5345C62.1814 75.5515 60.9599 84.1002 60.4886 89.1806C60.5322 89.1787 60.5757 89.1768 60.6192 89.1749C60.9733 89.2899 61.2333 89.4964 61.3993 89.7943C61.5652 90.0922 61.5906 90.4181 61.4756 90.7722C61.2474 91.5239 61.0654 92.0881 60.9295 92.4649C60.7937 92.8417 60.5812 93.211 60.292 93.5728C60.0028 93.9347 59.6842 94.1233 59.3359 94.1389C59.2053 94.1447 59.052 94.1297 58.8759 94.094C58.2568 93.9035 57.9037 93.3195 57.8164 92.3421C57.7292 91.3646 57.9266 88.946 58.4087 85.0863C58.9825 80.3502 59.884 74.1601 61.1132 66.5161C63.9572 49.1173 66.8629 33.5913 69.8304 19.938C70.0846 18.7926 70.3582 17.5919 70.6511 16.3358C70.9439 15.0796 71.3751 13.5011 71.9446 11.6002C72.514 9.69933 73.0827 8.0275 73.6508 6.58463C74.2189 5.14176 74.8699 3.84784 75.6039 2.70291C76.3379 1.55794 77.0513 0.926419 77.7438 0.808299C78.478 0.644703 79.0773 0.879656 79.5417 1.51316ZM3.99268 37.0738C3.99268 36.555 3.92514 36.1712 3.79005 35.9226C3.6549 35.674 3.40902 35.4308 3.05233 35.193L0.993179 33.7662C2.36593 33.269 3.77382 32.6853 5.21683 32.0151C6.65985 31.345 8.1434 30.5775 9.66748 29.7128V32.4691C10.2836 31.5936 10.9781 30.9423 11.7509 30.5154C12.5238 30.0884 13.3912 29.875 14.3532 29.875C16.4826 29.875 18.2148 30.6802 19.5497 32.2908C20.8846 33.9013 21.5521 35.9983 21.5521 38.5817C21.5521 41.2731 20.7684 43.3836 19.2011 44.9131C17.6338 46.4426 15.472 47.2074 12.7157 47.2074C12.3914 47.2074 12.0212 47.1911 11.605 47.1587C11.1889 47.1263 10.7214 47.0776 10.2026 47.0128V50.1906C10.2026 51.0446 10.362 51.6526 10.6808 52.0147C10.9997 52.3768 11.5374 52.5579 12.2941 52.5579H12.7805V53.4821H1.3661V52.5579H1.86871C2.62533 52.5579 3.16852 52.3768 3.49819 52.0147C3.82785 51.6526 3.99268 51.0446 3.99268 50.1906V37.0738ZM33.4691 44.3862C32.6476 45.3266 31.7856 46.0265 30.8831 46.4858C29.9805 46.9453 29.0266 47.1749 28.0213 47.1749C26.6918 47.1749 25.6136 46.7993 24.7867 46.0481C23.9598 45.2968 23.5464 44.3321 23.5464 43.1539C23.5464 41.7596 24.176 40.5463 25.4353 39.514C26.6946 38.4817 29.2698 37.2143 33.1611 35.7119V34.5607C33.1611 33.3501 33.0071 32.4827 32.699 31.9584C32.3909 31.4342 31.8856 31.1721 31.183 31.1721C30.6101 31.1721 30.1345 31.3423 29.7562 31.6828C29.3779 32.0232 29.1887 32.4475 29.1887 32.9555C29.1887 33.2258 29.1996 33.5419 29.2212 33.904C29.2428 34.2661 29.2536 34.4958 29.2536 34.5931C29.2536 35.3822 29.0347 36.0172 28.5969 36.4982C28.1592 36.9792 27.5782 37.2198 26.8539 37.2198C26.1946 37.2198 25.665 37.0117 25.265 36.5955C24.8651 36.1793 24.6652 35.6308 24.6652 34.9498C24.6652 33.4798 25.3623 32.2611 26.7567 31.2936C28.1511 30.3262 29.9454 29.8425 32.1396 29.8425C33.3719 29.8425 34.4879 29.9993 35.4878 30.3127C36.4876 30.6262 37.3064 31.0802 37.9441 31.6747C38.463 32.1611 38.8304 32.7285 39.0466 33.3771C39.2628 34.0256 39.3709 35.0039 39.3709 36.3118V40.9327C39.3709 42.2189 39.4709 43.1323 39.6709 43.6728C39.8709 44.2132 40.1924 44.4834 40.6356 44.4834C40.7329 44.4834 40.8302 44.4618 40.9274 44.4186C41.0247 44.3754 41.1274 44.3105 41.2355 44.224V45.2779C40.8031 45.8292 40.2438 46.2561 39.5574 46.5588C38.871 46.8615 38.1117 47.0128 37.2794 47.0128C36.3282 47.0128 35.531 46.7912 34.8879 46.348C34.2447 45.9048 33.7718 45.2509 33.4691 44.3862ZM54.4172 37.0738C54.4172 36.5441 54.3605 36.1307 54.2469 35.8334C54.1335 35.5362 53.947 35.2741 53.6876 35.0471L51.9203 33.5879C53.2606 33.0907 55.8116 31.9611 59.5732 30.1992L60.627 29.7128V43.1864C60.627 44.0295 60.7838 44.6348 61.0972 45.0023C61.4107 45.3698 61.9295 45.5535 62.6537 45.5535H62.751V46.4777H54.9523V44.5483C54.3145 45.4238 53.5471 46.0805 52.6499 46.5182C51.7527 46.956 50.7367 47.1749 49.6017 47.1749C47.9047 47.1749 46.6292 46.7155 45.7753 45.7968C44.9214 44.878 44.4944 43.5106 44.4944 41.6947V37.0738C44.4944 36.555 44.4269 36.1712 44.2918 35.9226C44.1567 35.674 43.9108 35.4308 43.554 35.193L41.5274 33.7662C42.5975 33.3663 43.8243 32.8637 45.2079 32.2583C46.5914 31.653 48.4344 30.8045 50.7367 29.7128V41.5001C50.7367 42.6567 50.8799 43.4647 51.1663 43.9241C51.4528 44.3835 51.9365 44.6131 52.6175 44.6131C53.2552 44.6131 53.7146 44.3754 53.9957 43.8998C54.2767 43.4242 54.4172 42.6243 54.4172 41.5001V37.0738ZM93.8657 44.3862C93.0442 45.3266 92.1821 46.0265 91.2795 46.4858C90.377 46.9453 89.4231 47.1749 88.4179 47.1749C87.0883 47.1749 86.0101 46.7993 85.1832 46.0481C84.3563 45.2968 83.9429 44.3321 83.9429 43.1539C83.9429 41.7596 84.5725 40.5463 85.8317 39.514C87.091 38.4817 89.6663 37.2143 93.5576 35.7119V34.5607C93.5576 33.3501 93.4035 32.4827 93.0955 31.9584C92.7874 31.4342 92.2821 31.1721 91.5795 31.1721C91.0066 31.1721 90.5311 31.3423 90.1527 31.6828C89.7744 32.0232 89.5853 32.4475 89.5853 32.9555C89.5853 33.2258 89.596 33.5419 89.6177 33.904C89.6393 34.2661 89.6501 34.4958 89.6501 34.5931C89.6501 35.3822 89.4312 36.0172 88.9934 36.4982C88.5557 36.9792 87.9747 37.2198 87.2505 37.2198C86.5911 37.2198 86.0615 37.0117 85.6615 36.5955C85.2616 36.1793 85.0616 35.6308 85.0616 34.9498C85.0616 33.4798 85.7588 32.2611 87.1532 31.2936C88.5476 30.3262 90.3419 29.8425 92.5361 29.8425C93.7684 29.8425 94.8844 29.9993 95.8842 30.3127C96.8841 30.6262 97.7029 31.0802 98.3406 31.6747C98.8594 32.1611 99.227 32.7285 99.4432 33.3771C99.6593 34.0256 99.7674 35.0039 99.7674 36.3118V40.9327C99.7674 42.2189 99.8674 43.1323 100.067 43.6728C100.267 44.2132 100.589 44.4834 101.032 44.4834C101.129 44.4834 101.227 44.4618 101.324 44.4186C101.421 44.3754 101.524 44.3105 101.632 44.224V45.2779C101.2 45.8292 100.64 46.2561 99.9539 46.5588C99.2675 46.8615 98.5082 47.0128 97.6759 47.0128C96.7246 47.0128 95.9275 46.7912 95.2843 46.348C94.6412 45.9048 94.1683 45.2509 93.8657 44.3862ZM71.1503 38.7762V37.8845C72.5663 36.7928 73.6337 35.8064 74.3525 34.9255C75.0713 34.0445 75.4307 33.2798 75.4307 32.6313C75.4307 32.2854 75.2983 32.0097 75.0335 31.8044C74.7686 31.599 74.4038 31.4963 73.939 31.4963H73.8417V30.5722H82.2729V31.4963H81.9972C80.8839 31.4963 79.8354 31.7881 78.8518 32.3719C77.8682 32.9555 76.8575 33.8851 75.8198 35.1606L80.4732 43.1215C80.9812 44.0078 81.473 44.624 81.9486 44.9699C82.4242 45.3158 83.0187 45.5103 83.7321 45.5535V46.4777H75.0254L71.1503 38.7762ZM12.4562 46.04C13.3101 46.04 13.8992 45.613 14.2235 44.7591C14.5477 43.9052 14.7099 42.0298 14.7099 39.1329C14.7099 36.2469 14.5477 34.3742 14.2235 33.5149C13.8992 32.6556 13.3101 32.2259 12.4562 32.2259C11.5915 32.2259 10.9943 32.6556 10.6646 33.5149C10.3349 34.3742 10.17 36.2469 10.17 39.1329C10.17 42.0298 10.3349 43.9052 10.6646 44.7591C10.9943 45.613 11.5915 46.04 12.4562 46.04ZM33.1611 36.9117C32.1882 37.3008 31.4478 37.9142 30.9398 38.7519C30.4317 39.5896 30.1777 40.6138 30.1777 41.8244C30.1777 42.5162 30.3155 43.0674 30.5912 43.4782C30.8668 43.8889 31.2262 44.0943 31.6694 44.0943C32.2423 44.0943 32.6341 43.8673 32.8449 43.4133C33.0556 42.9594 33.1611 41.8244 33.1611 40.0085V36.9117ZM93.5574 36.9117C92.5846 37.3008 91.8442 37.9142 91.3362 38.7519C90.8282 39.5896 90.5741 40.6138 90.5741 41.8244C90.5741 42.5162 90.7119 43.0674 90.9875 43.4782C91.2632 43.8889 91.6226 44.0943 92.0658 44.0943C92.6386 44.0943 93.0304 43.8673 93.2413 43.4133C93.452 42.9594 93.5574 41.8244 93.5574 40.0085V36.9117ZM72.3855 20.0203C73.98 16.6561 75.2095 13.6626 76.0739 11.0398C76.9382 8.41704 77.4375 6.1649 77.5716 4.28345C75.7845 7.24183 74.0558 12.4874 72.3855 20.0203Z" fill="#F0E5C4"/>
</svg>
